<svg xmlns="http://www.w3.org/2000/svg" xmlns:xlink="http://www.w3.org/1999/xlink" width="500" zoomAndPan="magnify" viewBox="0 0 375 299.999988" height="400" preserveAspectRatio="xMidYMid meet" version="1.0"><defs><clipPath id="07ac71c14b"><path d="M 67.5 117 L 117 117 L 117 210 L 67.5 210 Z M 67.5 117 " clip-rule="nonzero"/></clipPath><clipPath id="dfc1398c2d"><path d="M 131.75 117 L 181.25 117 L 181.25 210 L 131.75 210 Z M 131.75 117 " clip-rule="nonzero"/></clipPath><clipPath id="f589f2f171"><path d="M 196 117 L 245.5 117 L 245.5 210 L 196 210 Z M 196 117 " clip-rule="nonzero"/></clipPath><clipPath id="38addb81db"><path d="M 257.851562 117 L 307.351562 117 L 307.351562 210 L 257.851562 210 Z M 257.851562 117 " clip-rule="nonzero"/></clipPath></defs><g clip-path="url(#07ac71c14b)"><path fill="#01bf71" d="M 71.746094 165.035156 C 71.824219 165.035156 71.902344 165.03125 71.980469 165.027344 C 74.164062 164.898438 75.828125 163.019531 75.699219 160.832031 C 75.507812 157.53125 75.421875 154.523438 75.421875 151.785156 C 75.402344 139.765625 77.152344 133.011719 78.867188 129.488281 L 78.867188 203.84375 C 78.867188 207.234375 81.609375 209.984375 84.988281 209.984375 C 88.367188 209.984375 91.109375 207.234375 91.109375 203.84375 L 91.109375 159.035156 L 93.402344 159.035156 L 93.402344 203.84375 C 93.402344 207.234375 96.144531 209.984375 99.523438 209.984375 C 102.902344 209.984375 105.640625 207.234375 105.640625 203.84375 L 105.640625 129.507812 C 105.933594 130.113281 106.230469 130.804688 106.523438 131.613281 C 107.917969 135.492188 109.09375 141.851562 109.085938 151.785156 C 109.085938 154.523438 109 157.53125 108.808594 160.832031 C 108.679688 163.019531 110.347656 164.898438 112.53125 165.027344 C 112.609375 165.03125 112.6875 165.035156 112.765625 165.035156 C 114.847656 165.035156 116.59375 163.40625 116.714844 161.292969 C 116.914062 157.851562 117.007812 154.691406 117.007812 151.785156 C 116.988281 136.800781 114.601562 128.511719 111.347656 123.523438 C 109.722656 121.050781 107.820312 119.460938 106.0625 118.582031 C 104.914062 118 103.863281 117.730469 103.023438 117.609375 C 102.644531 117.480469 102.238281 117.410156 101.816406 117.410156 L 82.691406 117.410156 C 82.269531 117.410156 81.867188 117.480469 81.488281 117.605469 C 80.648438 117.726562 79.59375 118 78.445312 118.582031 C 75.785156 119.90625 72.914062 122.804688 70.902344 127.933594 C 68.871094 133.085938 67.507812 140.535156 67.5 151.785156 C 67.5 154.691406 67.59375 157.851562 67.792969 161.296875 C 67.917969 163.40625 69.664062 165.035156 71.746094 165.035156 Z M 71.746094 165.035156 " fill-opacity="1" fill-rule="nonzero"/></g><path fill="#01bf71" d="M 94.78125 92.539062 C 95.492188 92.703125 96.183594 92.9375 96.847656 93.242188 C 97.515625 93.542969 98.144531 93.90625 98.738281 94.335938 C 99.332031 94.761719 99.878906 95.242188 100.378906 95.777344 C 100.878906 96.3125 101.324219 96.890625 101.710938 97.515625 C 102.097656 98.136719 102.417969 98.792969 102.675781 99.476562 C 102.933594 100.164062 103.121094 100.867188 103.242188 101.589844 C 103.359375 102.316406 103.410156 103.042969 103.386719 103.777344 C 103.359375 104.507812 103.265625 105.230469 103.101562 105.945312 C 102.933594 106.660156 102.699219 107.351562 102.398438 108.019531 C 102.097656 108.6875 101.734375 109.320312 101.308594 109.914062 C 100.882812 110.511719 100.402344 111.058594 99.871094 111.5625 C 99.335938 112.0625 98.757812 112.507812 98.136719 112.894531 C 97.515625 113.28125 96.863281 113.605469 96.179688 113.863281 C 95.496094 114.121094 94.792969 114.3125 94.074219 114.429688 C 93.351562 114.550781 92.625 114.597656 91.894531 114.574219 C 91.164062 114.550781 90.441406 114.457031 89.730469 114.289062 C 89.019531 114.121094 88.328125 113.886719 87.664062 113.585938 C 86.996094 113.285156 86.367188 112.917969 85.773438 112.492188 C 85.179688 112.066406 84.628906 111.585938 84.128906 111.050781 C 83.628906 110.515625 83.1875 109.933594 82.800781 109.3125 C 82.414062 108.691406 82.09375 108.035156 81.835938 107.351562 C 81.578125 106.664062 81.390625 105.960938 81.269531 105.234375 C 81.152344 104.511719 81.101562 103.785156 81.125 103.050781 C 81.148438 102.320312 81.246094 101.59375 81.410156 100.882812 C 81.578125 100.167969 81.808594 99.476562 82.113281 98.808594 C 82.414062 98.140625 82.777344 97.507812 83.203125 96.910156 C 83.628906 96.316406 84.109375 95.765625 84.640625 95.265625 C 85.175781 94.765625 85.753906 94.320312 86.371094 93.933594 C 86.992188 93.546875 87.644531 93.222656 88.332031 92.964844 C 89.015625 92.707031 89.71875 92.515625 90.4375 92.398438 C 91.160156 92.277344 91.886719 92.230469 92.617188 92.253906 C 93.347656 92.277344 94.070312 92.371094 94.78125 92.539062 Z M 94.78125 92.539062 " fill-opacity="1" fill-rule="nonzero"/><g clip-path="url(#dfc1398c2d)"><path fill="#ffffff" d="M 135.996094 165.035156 C 136.074219 165.035156 136.152344 165.03125 136.230469 165.027344 C 138.414062 164.898438 140.078125 163.019531 139.953125 160.832031 C 139.757812 157.53125 139.671875 154.523438 139.671875 151.785156 C 139.65625 139.765625 141.402344 133.011719 143.117188 129.488281 L 143.117188 203.84375 C 143.117188 207.234375 145.859375 209.984375 149.238281 209.984375 C 152.617188 209.984375 155.359375 207.234375 155.359375 203.84375 L 155.359375 159.035156 L 157.652344 159.035156 L 157.652344 203.84375 C 157.652344 207.234375 160.394531 209.984375 163.773438 209.984375 C 167.152344 209.984375 169.894531 207.234375 169.894531 203.84375 L 169.894531 129.507812 C 170.1875 130.113281 170.480469 130.804688 170.773438 131.613281 C 172.167969 135.492188 173.34375 141.851562 173.339844 151.785156 C 173.339844 154.523438 173.25 157.53125 173.058594 160.832031 C 172.929688 163.019531 174.597656 164.898438 176.78125 165.027344 C 176.859375 165.03125 176.9375 165.035156 177.015625 165.035156 C 179.097656 165.035156 180.84375 163.40625 180.964844 161.292969 C 181.164062 157.851562 181.257812 154.691406 181.257812 151.785156 C 181.238281 136.800781 178.851562 128.511719 175.597656 123.523438 C 173.972656 121.050781 172.070312 119.460938 170.3125 118.582031 C 169.164062 118 168.113281 117.730469 167.273438 117.609375 C 166.894531 117.480469 166.488281 117.410156 166.066406 117.410156 L 146.945312 117.410156 C 146.523438 117.410156 146.117188 117.480469 145.738281 117.605469 C 144.898438 117.726562 143.847656 118 142.695312 118.582031 C 140.035156 119.90625 137.164062 122.804688 135.15625 127.933594 C 133.125 133.085938 131.757812 140.535156 131.75 151.785156 C 131.75 154.691406 131.84375 157.851562 132.046875 161.296875 C 132.167969 163.40625 133.914062 165.035156 135.996094 165.035156 Z M 135.996094 165.035156 " fill-opacity="1" fill-rule="nonzero"/></g><path fill="#ffffff" d="M 159.03125 92.539062 C 159.742188 92.703125 160.433594 92.9375 161.097656 93.242188 C 161.765625 93.542969 162.394531 93.90625 162.988281 94.335938 C 163.585938 94.761719 164.132812 95.242188 164.632812 95.777344 C 165.132812 96.3125 165.574219 96.890625 165.960938 97.515625 C 166.347656 98.136719 166.667969 98.792969 166.925781 99.476562 C 167.183594 100.164062 167.375 100.867188 167.492188 101.589844 C 167.613281 102.316406 167.660156 103.042969 167.636719 103.777344 C 167.613281 104.507812 167.515625 105.230469 167.351562 105.945312 C 167.1875 106.660156 166.953125 107.351562 166.648438 108.019531 C 166.347656 108.6875 165.984375 109.320312 165.558594 109.914062 C 165.132812 110.511719 164.652344 111.058594 164.121094 111.5625 C 163.585938 112.0625 163.011719 112.507812 162.390625 112.894531 C 161.769531 113.28125 161.117188 113.605469 160.433594 113.863281 C 159.746094 114.121094 159.042969 114.3125 158.324219 114.429688 C 157.601562 114.550781 156.875 114.597656 156.144531 114.574219 C 155.414062 114.550781 154.691406 114.457031 153.980469 114.289062 C 153.269531 114.121094 152.578125 113.886719 151.914062 113.585938 C 151.246094 113.285156 150.617188 112.917969 150.023438 112.492188 C 149.429688 112.066406 148.882812 111.585938 148.382812 111.050781 C 147.882812 110.515625 147.4375 109.933594 147.050781 109.3125 C 146.667969 108.691406 146.34375 108.035156 146.085938 107.351562 C 145.828125 106.664062 145.640625 105.960938 145.519531 105.234375 C 145.402344 104.511719 145.355469 103.785156 145.378906 103.050781 C 145.402344 102.320312 145.496094 101.59375 145.660156 100.882812 C 145.828125 100.167969 146.0625 99.476562 146.363281 98.808594 C 146.664062 98.140625 147.027344 97.507812 147.453125 96.910156 C 147.878906 96.316406 148.359375 95.765625 148.890625 95.265625 C 149.425781 94.765625 150.003906 94.320312 150.625 93.933594 C 151.246094 93.546875 151.898438 93.222656 152.582031 92.964844 C 153.265625 92.707031 153.96875 92.515625 154.691406 92.398438 C 155.410156 92.277344 156.136719 92.230469 156.867188 92.253906 C 157.597656 92.277344 158.320312 92.371094 159.03125 92.539062 Z M 159.03125 92.539062 " fill-opacity="1" fill-rule="nonzero"/><g clip-path="url(#f589f2f171)"><path fill="#ffffff" d="M 200.246094 165.035156 C 200.324219 165.035156 200.402344 165.03125 200.480469 165.027344 C 202.664062 164.898438 204.332031 163.019531 204.203125 160.832031 C 204.011719 157.53125 203.921875 154.523438 203.921875 151.785156 C 203.90625 139.765625 205.652344 133.011719 207.367188 129.488281 L 207.367188 203.84375 C 207.367188 207.234375 210.109375 209.984375 213.488281 209.984375 C 216.867188 209.984375 219.609375 207.234375 219.609375 203.84375 L 219.609375 159.035156 L 221.902344 159.035156 L 221.902344 203.84375 C 221.902344 207.234375 224.644531 209.984375 228.023438 209.984375 C 231.402344 209.984375 234.144531 207.234375 234.144531 203.84375 L 234.144531 129.507812 C 234.4375 130.113281 234.734375 130.804688 235.023438 131.613281 C 236.421875 135.492188 237.59375 141.851562 237.589844 151.785156 C 237.589844 154.523438 237.503906 157.53125 237.308594 160.832031 C 237.183594 163.019531 238.847656 164.898438 241.03125 165.027344 C 241.109375 165.03125 241.191406 165.035156 241.269531 165.035156 C 243.351562 165.035156 245.09375 163.40625 245.21875 161.292969 C 245.417969 157.851562 245.507812 154.691406 245.511719 151.785156 C 245.488281 136.800781 243.101562 128.511719 239.851562 123.523438 C 238.222656 121.050781 236.320312 119.460938 234.5625 118.582031 C 233.414062 118 232.363281 117.730469 231.523438 117.609375 C 231.144531 117.480469 230.742188 117.410156 230.316406 117.410156 L 211.195312 117.410156 C 210.773438 117.410156 210.367188 117.480469 209.988281 117.605469 C 209.148438 117.726562 208.097656 118 206.949219 118.582031 C 204.285156 119.90625 201.414062 122.804688 199.40625 127.933594 C 197.375 133.085938 196.007812 140.535156 196 151.785156 C 196 154.691406 196.09375 157.851562 196.296875 161.296875 C 196.417969 163.40625 198.164062 165.035156 200.246094 165.035156 Z M 200.246094 165.035156 " fill-opacity="1" fill-rule="nonzero"/></g><path fill="#ffffff" d="M 223.28125 92.539062 C 223.996094 92.703125 224.683594 92.9375 225.351562 93.242188 C 226.015625 93.542969 226.644531 93.90625 227.242188 94.335938 C 227.835938 94.761719 228.382812 95.242188 228.882812 95.777344 C 229.382812 96.3125 229.824219 96.890625 230.210938 97.515625 C 230.597656 98.136719 230.921875 98.792969 231.179688 99.476562 C 231.433594 100.164062 231.625 100.867188 231.742188 101.589844 C 231.863281 102.316406 231.910156 103.042969 231.886719 103.777344 C 231.863281 104.507812 231.769531 105.230469 231.601562 105.945312 C 231.4375 106.660156 231.203125 107.351562 230.902344 108.019531 C 230.601562 108.6875 230.234375 109.320312 229.808594 109.914062 C 229.382812 110.511719 228.90625 111.058594 228.371094 111.5625 C 227.839844 112.0625 227.261719 112.507812 226.640625 112.894531 C 226.019531 113.28125 225.367188 113.605469 224.683594 113.863281 C 224 114.121094 223.296875 114.3125 222.574219 114.429688 C 221.851562 114.550781 221.128906 114.597656 220.394531 114.574219 C 219.664062 114.550781 218.945312 114.457031 218.230469 114.289062 C 217.519531 114.121094 216.832031 113.886719 216.164062 113.585938 C 215.5 113.285156 214.867188 112.917969 214.273438 112.492188 C 213.679688 112.066406 213.132812 111.585938 212.632812 111.050781 C 212.132812 110.515625 211.691406 109.933594 211.304688 109.3125 C 210.917969 108.691406 210.59375 108.035156 210.335938 107.351562 C 210.078125 106.664062 209.890625 105.960938 209.773438 105.234375 C 209.652344 104.511719 209.605469 103.785156 209.628906 103.050781 C 209.652344 102.320312 209.746094 101.59375 209.914062 100.882812 C 210.078125 100.167969 210.3125 99.476562 210.613281 98.808594 C 210.914062 98.140625 211.277344 97.507812 211.703125 96.910156 C 212.128906 96.316406 212.609375 95.765625 213.144531 95.265625 C 213.675781 94.765625 214.253906 94.320312 214.875 93.933594 C 215.496094 93.546875 216.148438 93.222656 216.832031 92.964844 C 217.515625 92.707031 218.21875 92.515625 218.941406 92.398438 C 219.660156 92.277344 220.386719 92.230469 221.117188 92.253906 C 221.847656 92.277344 222.570312 92.371094 223.28125 92.539062 Z M 223.28125 92.539062 " fill-opacity="1" fill-rule="nonzero"/><g clip-path="url(#38addb81db)"><path fill="#ffffff" d="M 262.09375 165.035156 C 262.171875 165.035156 262.25 165.03125 262.332031 165.027344 C 264.511719 164.898438 266.179688 163.019531 266.050781 160.832031 C 265.859375 157.53125 265.769531 154.523438 265.769531 151.785156 C 265.753906 139.765625 267.5 133.011719 269.21875 129.488281 L 269.21875 203.84375 C 269.21875 207.234375 271.957031 209.984375 275.335938 209.984375 C 278.714844 209.984375 281.457031 207.234375 281.457031 203.84375 L 281.457031 159.035156 L 283.75 159.035156 L 283.75 203.84375 C 283.75 207.234375 286.492188 209.984375 289.871094 209.984375 C 293.25 209.984375 295.992188 207.234375 295.992188 203.84375 L 295.992188 129.507812 C 296.285156 130.113281 296.582031 130.804688 296.875 131.613281 C 298.269531 135.492188 299.441406 141.851562 299.4375 151.785156 C 299.4375 154.523438 299.351562 157.53125 299.160156 160.832031 C 299.03125 163.019531 300.695312 164.898438 302.878906 165.027344 C 302.960938 165.03125 303.039062 165.035156 303.117188 165.035156 C 305.199219 165.035156 306.941406 163.40625 307.066406 161.292969 C 307.265625 157.851562 307.355469 154.691406 307.359375 151.785156 C 307.335938 136.800781 304.949219 128.511719 301.699219 123.523438 C 300.070312 121.050781 298.167969 119.460938 296.410156 118.582031 C 295.265625 118 294.210938 117.730469 293.371094 117.609375 C 292.992188 117.480469 292.589844 117.410156 292.167969 117.410156 L 273.042969 117.410156 C 272.621094 117.410156 272.214844 117.480469 271.835938 117.605469 C 270.996094 117.726562 269.945312 118 268.796875 118.582031 C 266.132812 119.90625 263.261719 122.804688 261.253906 127.933594 C 259.222656 133.085938 257.855469 140.535156 257.851562 151.785156 C 257.851562 154.691406 257.941406 157.851562 258.144531 161.296875 C 258.269531 163.40625 260.011719 165.035156 262.09375 165.035156 Z M 262.09375 165.035156 " fill-opacity="1" fill-rule="nonzero"/></g><path fill="#ffffff" d="M 285.132812 92.539062 C 285.84375 92.703125 286.53125 92.9375 287.199219 93.242188 C 287.863281 93.542969 288.496094 93.90625 289.089844 94.335938 C 289.683594 94.761719 290.230469 95.242188 290.730469 95.777344 C 291.230469 96.3125 291.671875 96.890625 292.058594 97.515625 C 292.445312 98.136719 292.769531 98.792969 293.027344 99.476562 C 293.285156 100.164062 293.472656 100.867188 293.589844 101.589844 C 293.710938 102.316406 293.757812 103.042969 293.734375 103.777344 C 293.710938 104.507812 293.617188 105.230469 293.449219 105.945312 C 293.285156 106.660156 293.050781 107.351562 292.75 108.019531 C 292.449219 108.6875 292.085938 109.320312 291.660156 109.914062 C 291.234375 110.511719 290.753906 111.058594 290.21875 111.5625 C 289.6875 112.0625 289.109375 112.507812 288.488281 112.894531 C 287.867188 113.28125 287.214844 113.605469 286.53125 113.863281 C 285.847656 114.121094 285.144531 114.3125 284.421875 114.429688 C 283.699219 114.550781 282.976562 114.597656 282.246094 114.574219 C 281.511719 114.550781 280.792969 114.457031 280.082031 114.289062 C 279.367188 114.121094 278.679688 113.886719 278.011719 113.585938 C 277.347656 113.285156 276.714844 112.917969 276.121094 112.492188 C 275.527344 112.066406 274.980469 111.585938 274.480469 111.050781 C 273.980469 110.515625 273.539062 109.933594 273.152344 109.3125 C 272.765625 108.691406 272.441406 108.035156 272.183594 107.351562 C 271.925781 106.664062 271.738281 105.960938 271.621094 105.234375 C 271.5 104.511719 271.453125 103.785156 271.476562 103.050781 C 271.5 102.320312 271.59375 101.59375 271.761719 100.882812 C 271.925781 100.167969 272.160156 99.476562 272.460938 98.808594 C 272.761719 98.140625 273.128906 97.507812 273.550781 96.910156 C 273.976562 96.316406 274.457031 95.765625 274.992188 95.265625 C 275.523438 94.765625 276.101562 94.320312 276.722656 93.933594 C 277.34375 93.546875 277.996094 93.222656 278.679688 92.964844 C 279.363281 92.707031 280.066406 92.515625 280.789062 92.398438 C 281.511719 92.277344 282.234375 92.230469 282.96875 92.253906 C 283.699219 92.277344 284.417969 92.371094 285.132812 92.539062 Z M 285.132812 92.539062 " fill-opacity="1" fill-rule="nonzero"/></svg>