<svg xmlns="http://www.w3.org/2000/svg" xmlns:xlink="http://www.w3.org/1999/xlink" width="500" zoomAndPan="magnify" viewBox="0 0 375 299.999988" height="400" preserveAspectRatio="xMidYMid meet" version="1.0"><defs><clipPath id="af2d5259b2"><path d="M 95.769531 58.269531 L 279.519531 58.269531 L 279.519531 242.019531 L 95.769531 242.019531 Z M 95.769531 58.269531 " clip-rule="nonzero"/></clipPath></defs><g clip-path="url(#af2d5259b2)"><path fill="#ffffff" d="M 187.644531 58.269531 C 136.984375 58.269531 95.769531 99.484375 95.769531 150.144531 C 95.769531 200.804688 136.984375 242.019531 187.644531 242.019531 C 238.304688 242.019531 279.519531 200.804688 279.519531 150.144531 C 279.519531 99.484375 238.304688 58.269531 187.644531 58.269531 Z M 135.582031 183.832031 C 135.582031 175.105469 137.765625 166.886719 141.578125 159.652344 C 143.191406 160.34375 144.769531 161.09375 146.292969 161.976562 C 150.339844 164.332031 150.886719 165.5625 150.902344 165.570312 C 150.808594 165.824219 150.132812 166.484375 149.636719 166.964844 C 148.234375 168.332031 146.308594 170.203125 144.972656 173.546875 C 143.832031 176.503906 142.378906 182.023438 145.457031 185.761719 C 147.015625 187.675781 148.929688 188.078125 150.199219 188.347656 C 151.152344 188.542969 151.402344 188.625 151.660156 188.914062 C 152.679688 190.074219 152.625 192.828125 151.554688 194.179688 C 151.046875 194.820312 150.347656 194.957031 148.472656 195.183594 C 147.085938 195.351562 145.359375 195.5625 143.554688 196.332031 C 141.578125 197.1875 139.855469 198.609375 138.367188 200.496094 C 136.59375 195.253906 135.585938 189.664062 135.585938 183.832031 Z M 145.96875 201.960938 C 146.960938 201.539062 148.050781 201.40625 149.210938 201.265625 C 151.453125 200.996094 154.246094 200.65625 156.359375 197.980469 C 159.292969 194.269531 159.246094 188.265625 156.246094 184.859375 C 154.613281 183.015625 152.714844 182.617188 151.460938 182.355469 C 150.496094 182.152344 150.363281 182.089844 150.195312 181.886719 C 149.445312 180.972656 149.648438 178.449219 150.671875 175.785156 C 151.511719 173.6875 152.730469 172.503906 153.90625 171.359375 C 155.34375 169.957031 157.132812 168.222656 157.019531 165.363281 C 156.925781 162.382812 154.566406 159.707031 149.367188 156.6875 C 147.871094 155.816406 146.339844 155.058594 144.773438 154.355469 C 147.792969 149.980469 151.472656 146.113281 155.648438 142.847656 C 157.628906 144.785156 159.824219 146.164062 162.210938 146.9375 C 163.738281 147.425781 165.15625 147.625 166.507812 147.625 C 169.25 147.625 171.726562 146.8125 174.296875 145.96875 C 177.917969 144.777344 181.65625 143.546875 187.394531 144.011719 C 190.839844 144.285156 192.851562 145.007812 194.796875 145.707031 C 197.085938 146.53125 199.457031 147.386719 203.207031 147.074219 C 208.007812 146.675781 212.640625 144.59375 217.003906 140.878906 C 219.523438 142.605469 221.875 144.550781 224.050781 146.679688 C 221.09375 148.023438 219.222656 149.851562 218.429688 152.230469 C 217.730469 154.296875 218.113281 156.109375 218.421875 157.566406 C 218.71875 158.96875 218.929688 159.980469 218.445312 161.375 C 217.792969 163.210938 216.21875 165.253906 214.730469 165.496094 C 213.710938 165.660156 212.597656 164.726562 210.917969 163.160156 C 208.855469 161.238281 206.277344 158.839844 202.535156 159.363281 C 199.289062 159.8125 197.902344 162.238281 196.789062 164.1875 C 195.773438 165.957031 194.816406 167.632812 192.398438 168.84375 C 189.703125 170.195312 187.003906 170.367188 184.839844 170.507812 C 182.40625 170.664062 179.382812 170.859375 178.574219 173.8125 C 177.71875 176.847656 180.363281 178.53125 182.289062 179.757812 C 184.207031 180.980469 186.59375 182.503906 187.980469 185.226562 C 189.027344 187.269531 189.050781 189.0625 189.070312 190.964844 C 189.101562 193.335938 189.136719 196.292969 191.839844 198.460938 C 193.570312 199.863281 195.773438 200.445312 197.980469 200.445312 C 200.347656 200.445312 202.722656 199.773438 204.519531 198.714844 C 207.980469 196.664062 209.347656 193.324219 210.445312 190.644531 C 211.457031 188.175781 212.003906 187.0625 213.03125 186.761719 C 213.539062 186.601562 214.070312 186.714844 214.546875 186.820312 C 216.292969 187.207031 217.324219 188.8125 218.855469 191.410156 C 220.453125 194.117188 222.445312 197.492188 226.40625 198.957031 C 229.082031 199.929688 231.277344 199.566406 234.109375 199.09375 C 235.304688 198.886719 236.480469 198.566406 237.644531 198.191406 C 234.691406 208.464844 228.6875 217.453125 220.636719 224.066406 C 219.421875 223.375 218.332031 222.601562 217.523438 221.640625 C 216.207031 220.113281 215.367188 218.28125 214.632812 216.664062 C 213.503906 214.191406 212.222656 211.390625 209.109375 211.390625 L 209.039062 211.390625 C 206.082031 211.433594 204.925781 214.078125 204.082031 216.007812 C 203.382812 217.613281 202.507812 219.617188 200.703125 221.566406 C 196.480469 226.160156 190.699219 226.691406 190.402344 226.71875 C 189.027344 226.855469 184.261719 227.078125 180.222656 224.203125 C 178.640625 223.082031 177.914062 222.023438 177.214844 221 C 176.363281 219.761719 175.308594 218.21875 173.125 217.621094 C 169.046875 216.523438 164.640625 219.558594 159.042969 227.28125 C 151.550781 222.332031 145.433594 215.496094 141.316406 207.464844 C 142.578125 204.644531 144.132812 202.75 145.972656 201.957031 Z M 160.851562 139.277344 C 168.691406 134.546875 177.839844 131.769531 187.644531 131.769531 C 196.171875 131.769531 204.210938 133.871094 211.320312 137.523438 C 208.492188 139.550781 205.605469 140.726562 202.703125 140.96875 C 200.28125 141.160156 198.921875 140.679688 196.867188 139.941406 C 194.765625 139.1875 192.148438 138.246094 187.890625 137.90625 C 180.925781 137.339844 176.191406 138.898438 172.386719 140.144531 C 169.03125 141.246094 166.8125 141.980469 164.085938 141.105469 C 162.941406 140.734375 161.871094 140.113281 160.847656 139.277344 Z M 239.160156 190.957031 C 237.191406 191.976562 235.148438 192.699219 233.050781 193.066406 C 230.539062 193.488281 229.617188 193.609375 228.523438 193.210938 C 226.613281 192.5 225.460938 190.550781 224.128906 188.296875 C 222.421875 185.410156 220.300781 181.824219 215.773438 180.820312 C 215.023438 180.660156 213.273438 180.289062 211.285156 180.890625 C 207.355469 182.039062 205.925781 185.523438 204.777344 188.320312 C 203.875 190.53125 203.089844 192.441406 201.402344 193.441406 C 199.4375 194.597656 196.722656 194.527344 195.6875 193.691406 C 195.304688 193.382812 195.222656 192.914062 195.191406 190.882812 C 195.164062 188.71875 195.128906 185.753906 193.433594 182.4375 C 192.011719 179.648438 190.019531 177.742188 188.175781 176.355469 C 190.230469 176.09375 192.65625 175.558594 195.136719 174.320312 C 199.210938 172.28125 200.949219 169.238281 202.101562 167.222656 C 202.550781 166.441406 203.109375 165.460938 203.367188 165.425781 C 204.148438 165.320312 205.226562 166.226562 206.746094 167.640625 C 208.804688 169.554688 211.613281 172.195312 215.695312 171.539062 C 219.832031 170.867188 222.953125 166.976562 224.222656 163.398438 C 225.273438 160.382812 224.777344 158.019531 224.414062 156.300781 C 224.191406 155.253906 224.074219 154.640625 224.234375 154.171875 C 224.554688 153.210938 226.101562 152.289062 228.429688 151.570312 C 235.46875 160.449219 239.703125 171.644531 239.703125 183.828125 C 239.703125 186.25 239.480469 188.617188 239.160156 190.953125 Z M 164.382812 230.339844 C 169.359375 223.609375 171.457031 223.53125 171.429688 223.484375 C 171.570312 223.601562 171.914062 224.097656 172.15625 224.457031 C 172.976562 225.648438 174.207031 227.453125 176.679688 229.195312 C 182.289062 233.191406 188.570312 233.050781 190.960938 232.816406 C 191.816406 232.746094 199.484375 231.941406 205.203125 225.71875 C 207.246094 223.511719 208.421875 221.277344 209.214844 219.542969 C 210.023438 221.296875 211.113281 223.582031 212.871094 225.621094 C 213.570312 226.445312 214.386719 227.1875 215.269531 227.878906 C 207.25 232.921875 197.800781 235.890625 187.648438 235.890625 C 179.28125 235.890625 171.394531 233.859375 164.382812 230.335938 Z M 227.695312 225.933594 C 238.839844 215.328125 245.832031 200.398438 245.832031 183.832031 C 245.832031 151.746094 219.730469 125.644531 187.644531 125.644531 C 155.558594 125.644531 129.457031 151.746094 129.457031 183.832031 C 129.457031 200.398438 136.449219 215.328125 147.59375 225.933594 C 120.4375 211.527344 101.894531 182.96875 101.894531 150.144531 C 101.894531 102.863281 140.363281 64.394531 187.644531 64.394531 C 234.925781 64.394531 273.394531 102.863281 273.394531 150.144531 C 273.394531 182.96875 254.847656 211.527344 227.695312 225.933594 Z M 227.695312 225.933594 " fill-opacity="1" fill-rule="nonzero"/></g><path fill="#ffffff" d="M 266.371094 127.808594 L 262.042969 123.480469 L 245.832031 139.6875 L 245.832031 131.769531 L 239.707031 131.769531 L 239.707031 147.082031 C 239.707031 148.773438 241.078125 150.144531 242.769531 150.144531 L 258.082031 150.144531 L 258.082031 144.019531 L 250.160156 144.019531 Z M 266.371094 127.808594 " fill-opacity="1" fill-rule="nonzero"/><path fill="#ffffff" d="M 129.457031 131.769531 L 129.457031 125.644531 L 114.144531 125.644531 C 112.453125 125.644531 111.082031 127.015625 111.082031 128.707031 L 111.082031 144.019531 L 117.207031 144.019531 L 117.207031 136.097656 L 133.417969 152.308594 L 137.746094 147.980469 L 121.535156 131.769531 Z M 129.457031 131.769531 " fill-opacity="1" fill-rule="nonzero"/><path fill="#ffffff" d="M 208.0625 79.707031 C 207.230469 79.707031 206.394531 79.757812 205.523438 79.859375 C 202.5625 74.246094 195.628906 70.519531 187.648438 70.519531 C 179.667969 70.519531 172.730469 74.25 169.769531 79.859375 C 168.898438 79.753906 168.0625 79.707031 167.234375 79.707031 C 156.539062 79.707031 147.835938 86.574219 147.835938 95.019531 C 147.835938 103.460938 156.539062 110.332031 167.234375 110.332031 L 167.234375 104.207031 C 160.039062 104.207031 153.960938 100 153.960938 95.019531 C 153.960938 90.039062 160.039062 85.832031 167.234375 85.832031 C 168.390625 85.832031 169.601562 85.976562 171.039062 86.28125 C 172.609375 86.617188 174.1875 85.671875 174.625 84.117188 C 175.847656 79.785156 181.328125 76.644531 187.648438 76.644531 C 193.96875 76.644531 199.449219 79.785156 200.667969 84.117188 C 201.105469 85.671875 202.679688 86.617188 204.253906 86.28125 C 205.691406 85.976562 206.902344 85.832031 208.0625 85.832031 C 215.253906 85.832031 221.332031 90.039062 221.332031 95.019531 C 221.332031 100 215.253906 104.207031 208.0625 104.207031 L 208.0625 110.332031 C 218.757812 110.332031 227.457031 103.460938 227.457031 95.019531 C 227.457031 86.574219 218.757812 79.707031 208.0625 79.707031 Z M 208.0625 79.707031 " fill-opacity="1" fill-rule="nonzero"/><path fill="#ffffff" d="M 184.582031 91.957031 L 190.707031 91.957031 L 190.707031 113.394531 L 184.582031 113.394531 Z M 184.582031 91.957031 " fill-opacity="1" fill-rule="nonzero"/><path fill="#ffffff" d="M 193.886719 118.675781 L 200.015625 97.242188 L 205.902344 98.925781 L 199.773438 120.359375 Z M 193.886719 118.675781 " fill-opacity="1" fill-rule="nonzero"/><path fill="#ffffff" d="M 169.386719 98.921875 L 175.277344 97.242188 L 181.402344 118.679688 L 175.511719 120.359375 Z M 169.386719 98.921875 " fill-opacity="1" fill-rule="nonzero"/></svg>